# xmcd CD database file
#
# Track frame offsets:
#	150
#	27543
#	51980
#	79418
#	94374
#	107699
#	148780
#	171466
#	197474
#
# Disc length: 2854 seconds
#
# Revision: 0
# Processed by: cddbd v1.5.2PL0 Copyright (c) Steve Scherf et al.
# Submitted via: CDex 1.70beta3
#
DISCID=830b2409
DTITLE=Yonezawa Megumi Trio - A Result of the Colors
DYEAR=2012
DGENRE=Jazz
TTITLE0=A Result of the Colors
TTITLE1=Children of the Sun
TTITLE2=Untitled
TTITLE3=Dr. Jekyll and Mr. Hyde
TTITLE4=Sketch
TTITLE5=For Heaven's Sake
TTITLE6=Nor Dear or Fear
TTITLE7=A Letter from Stillness
TTITLE8=Epilogue
EXTD=YEAR: 2012
EXTT0=
EXTT1=
EXTT2=
EXTT3=
EXTT4=
EXTT5=
EXTT6=
EXTT7=
EXTT8=
PLAYORDER=
